<svg xmlns="http://www.w3.org/2000/svg" width="1284.056" height="790.408" viewBox="0 0 1284.056 790.408">
  <g id="Group_3204" data-name="Group 3204" transform="translate(-12395 -6813.295)">
    <g id="Group_3202" data-name="Group 3202" transform="translate(12729.628 6703.078)">
      <path id="Path_16093" data-name="Path 16093" d="M79.068,122.833c-.041-.41-.063-.807-.07-1.189a6.264,6.264,0,0,0-1.579-3.668,4.272,4.272,0,0,0-2.995-1.137,5.079,5.079,0,0,1-.66.011l0-1.642c.206-.011.412-.017.607-.015a4.689,4.689,0,0,0,2.915-1.2,4.25,4.25,0,0,0,1.1-3.025,5.469,5.469,0,0,1-.012-.746l1.642.01c.013.231.019.456.017.677a4.281,4.281,0,0,0,1.127,2.667,4.181,4.181,0,0,0,3.089,1.018,4.823,4.823,0,0,1,.729-.032L85,116.2q-.325.029-.637.034a4.1,4.1,0,0,0-2.451,1.186,5.7,5.7,0,0,0-1.275,4.1,8.7,8.7,0,0,1,.066,1.27Zm-1.639-6.887a5.358,5.358,0,0,1,1.146.861,6.016,6.016,0,0,1,1,1.293,5.74,5.74,0,0,1,1.171-1.835,5.341,5.341,0,0,1,.649-.573A4.836,4.836,0,0,1,80,114.735a4.9,4.9,0,0,1-.655-.8,5.037,5.037,0,0,1-.9,1.226A5.187,5.187,0,0,1,77.429,115.946Z" fill="#231f20"/>
      <path id="Path_16094" data-name="Path 16094" d="M195.907,218.113a8.638,8.638,0,0,0-1.052-4.075,6.415,6.415,0,0,0,6.01-.409l3.169,7.277C200.281,220.9,195.907,218.113,195.907,218.113Z" transform="translate(0 13.717)"/>
      <path id="Path_16095" data-name="Path 16095" d="M89.324,347.119a8.628,8.628,0,0,0-3.95,1.449,6.416,6.416,0,0,0-1-5.939l6.927-3.874C91.668,342.489,89.324,347.119,89.324,347.119Z" transform="translate(-419 -36.237)"/>
      <path id="Path_16096" data-name="Path 16096" d="M445.824,533.119a8.627,8.627,0,0,0-3.95,1.449,6.416,6.416,0,0,0-1-5.939l6.927-3.874C448.168,528.489,445.824,533.119,445.824,533.119Z" transform="translate(-418 -268.742)"/>
      <path id="Path_16097" data-name="Path 16097" d="M544.99,70.029a8.634,8.634,0,0,0-1.051-4.074,6.416,6.416,0,0,0,6.01-.409l3.168,7.277C549.364,72.821,544.99,70.029,544.99,70.029Z" transform="translate(-783 79)"/>
      <path id="Path_16098" data-name="Path 16098" d="M336.191,386.606q-.06-.616-.07-1.189a6.259,6.259,0,0,0-1.579-3.668,4.265,4.265,0,0,0-2.995-1.137,4.974,4.974,0,0,1-.66.01l0-1.642c.206-.011.412-.017.607-.015a4.689,4.689,0,0,0,2.915-1.2,4.246,4.246,0,0,0,1.1-3.025,5.472,5.472,0,0,1-.012-.746l1.642.01q.02.346.017.678a4.278,4.278,0,0,0,1.127,2.666,4.178,4.178,0,0,0,3.09,1.018,4.733,4.733,0,0,1,.728-.031l.024,1.64c-.217.019-.429.03-.637.035a4.1,4.1,0,0,0-2.451,1.186,5.7,5.7,0,0,0-1.275,4.094,8.97,8.97,0,0,1,.067,1.271Zm-1.639-6.888a5.392,5.392,0,0,1,1.146.861,6,6,0,0,1,1,1.294,5.7,5.7,0,0,1,1.172-1.835,5.25,5.25,0,0,1,.648-.573,4.856,4.856,0,0,1-1.392-.957,4.924,4.924,0,0,1-.654-.8,5.067,5.067,0,0,1-.9,1.226A5.181,5.181,0,0,1,334.552,379.718Z" transform="translate(35 -245)" fill="#231f20"/>
      <circle id="Ellipse_222" data-name="Ellipse 222" cx="2" cy="2" r="2" transform="translate(945.427 351.923)" fill="#231f20"/>
      <circle id="Ellipse_223" data-name="Ellipse 223" cx="2" cy="2" r="2" transform="translate(421.025 189.114)" fill="#231f20"/>
      <circle id="Ellipse_224" data-name="Ellipse 224" cx="2" cy="2" r="2" transform="translate(741.311 297.653)" fill="#231f20"/>
      <circle id="Ellipse_225" data-name="Ellipse 225" cx="2" cy="2" r="2" transform="translate(848.858 133.171)" fill="#231f20"/>
      <circle id="Ellipse_226" data-name="Ellipse 226" cx="2" cy="2" r="2" transform="translate(579.862 231.077)" fill="#231f20"/>
      <circle id="Ellipse_227" data-name="Ellipse 227" cx="2" cy="2" r="2" transform="translate(563.056 335.923)" fill="#231f20"/>
    </g>
    <g id="Group_3203" data-name="Group 3203" transform="translate(13344.428 7713.921) rotate(180)">
      <path id="Path_16093-2" data-name="Path 16093" d="M79.068,122.833c-.041-.41-.063-.807-.07-1.189a6.264,6.264,0,0,0-1.579-3.668,4.272,4.272,0,0,0-2.995-1.137,5.079,5.079,0,0,1-.66.011l0-1.642c.206-.011.412-.017.607-.015a4.689,4.689,0,0,0,2.915-1.2,4.25,4.25,0,0,0,1.1-3.025,5.469,5.469,0,0,1-.012-.746l1.642.01c.013.231.019.456.017.677a4.281,4.281,0,0,0,1.127,2.667,4.181,4.181,0,0,0,3.089,1.018,4.823,4.823,0,0,1,.729-.032L85,116.2q-.325.029-.637.034a4.1,4.1,0,0,0-2.451,1.186,5.7,5.7,0,0,0-1.275,4.1,8.7,8.7,0,0,1,.066,1.27Zm-1.639-6.887a5.358,5.358,0,0,1,1.146.861,6.016,6.016,0,0,1,1,1.293,5.74,5.74,0,0,1,1.171-1.835,5.341,5.341,0,0,1,.649-.573A4.836,4.836,0,0,1,80,114.735a4.9,4.9,0,0,1-.655-.8,5.037,5.037,0,0,1-.9,1.226A5.187,5.187,0,0,1,77.429,115.946Z" transform="translate(0)" fill="#231f20"/>
      <path id="Path_16094-2" data-name="Path 16094" d="M195.907,218.113a8.638,8.638,0,0,0-1.052-4.075,6.415,6.415,0,0,0,6.01-.409l3.169,7.277C200.281,220.9,195.907,218.113,195.907,218.113Z" transform="translate(0 22.742)"/>
      <path id="Path_16095-2" data-name="Path 16095" d="M89.324,347.119a8.628,8.628,0,0,0-3.95,1.449,6.416,6.416,0,0,0-1-5.939l6.927-3.874C91.668,342.489,89.324,347.119,89.324,347.119Z" transform="translate(-419 -21.261)"/>
      <path id="Path_16096-2" data-name="Path 16096" d="M445.824,533.119a8.627,8.627,0,0,0-3.95,1.449,6.416,6.416,0,0,0-1-5.939l6.927-3.874C448.168,528.489,445.824,533.119,445.824,533.119Z" transform="translate(-418 -257.388)"/>
      <path id="Path_16097-2" data-name="Path 16097" d="M544.99,70.029a8.634,8.634,0,0,0-1.051-4.074,6.416,6.416,0,0,0,6.01-.409l3.168,7.277C549.364,72.821,544.99,70.029,544.99,70.029Z" transform="translate(-783 95.567)"/>
      <path id="Path_16098-2" data-name="Path 16098" d="M336.191,386.606q-.06-.616-.07-1.189a6.259,6.259,0,0,0-1.579-3.668,4.265,4.265,0,0,0-2.995-1.137,4.974,4.974,0,0,1-.66.01l0-1.642c.206-.011.412-.017.607-.015a4.689,4.689,0,0,0,2.915-1.2,4.246,4.246,0,0,0,1.1-3.025,5.472,5.472,0,0,1-.012-.746l1.642.01q.02.346.017.678a4.278,4.278,0,0,0,1.127,2.666,4.178,4.178,0,0,0,3.09,1.018,4.733,4.733,0,0,1,.728-.031l.024,1.64c-.217.019-.429.03-.637.035a4.1,4.1,0,0,0-2.451,1.186,5.7,5.7,0,0,0-1.275,4.094,8.97,8.97,0,0,1,.067,1.271Zm-1.639-6.888a5.392,5.392,0,0,1,1.146.861,6,6,0,0,1,1,1.294,5.7,5.7,0,0,1,1.172-1.835,5.25,5.25,0,0,1,.648-.573,4.856,4.856,0,0,1-1.392-.957,4.924,4.924,0,0,1-.654-.8,5.067,5.067,0,0,1-.9,1.226A5.181,5.181,0,0,1,334.552,379.718Z" transform="translate(35 -245)" fill="#231f20"/>
      <circle id="Ellipse_222-2" data-name="Ellipse 222" cx="2" cy="2" r="2" transform="translate(945.428 370.294)" fill="#231f20"/>
      <circle id="Ellipse_223-2" data-name="Ellipse 223" cx="2" cy="2" r="2" transform="translate(421.025 195.111)" fill="#231f20"/>
      <circle id="Ellipse_224-2" data-name="Ellipse 224" cx="2" cy="2" r="2" transform="translate(741.312 311.9)" fill="#231f20"/>
      <circle id="Ellipse_225-2" data-name="Ellipse 225" cx="2" cy="2" r="2" transform="translate(848.858 133.171)" fill="#231f20"/>
      <circle id="Ellipse_226-2" data-name="Ellipse 226" cx="2" cy="2" r="2" transform="translate(579.863 240.264)" fill="#231f20"/>
      <circle id="Ellipse_227-2" data-name="Ellipse 227" cx="2" cy="2" r="2" transform="translate(563.057 354.294)" fill="#231f20"/>
    </g>
  </g>
</svg>
