<svg xmlns="http://www.w3.org/2000/svg" width="1161.105" height="74.814" viewBox="0 0 1161.105 74.814">
  <g id="header_nav" data-name="header nav" transform="translate(-54.895 -3.744)">
    <g id="Group_3189" data-name="Group 3189" transform="translate(805.138 -240.959)">
      <path id="Path_16087" data-name="Path 16087" d="M77.215,118.426c-.027-.267-.041-.525-.046-.774a4.075,4.075,0,0,0-1.027-2.387,2.779,2.779,0,0,0-1.949-.74,3.305,3.305,0,0,1-.429.007v-1.068c.134-.007.268-.011.395-.01a3.051,3.051,0,0,0,1.9-.783,2.765,2.765,0,0,0,.716-1.968,3.558,3.558,0,0,1-.008-.485l1.068.007c.008.15.012.3.011.44a2.785,2.785,0,0,0,.733,1.735,2.72,2.72,0,0,0,2.01.662,3.138,3.138,0,0,1,.474-.021l.016,1.068q-.212.019-.414.022a2.67,2.67,0,0,0-1.595.772,3.709,3.709,0,0,0-.83,2.664,5.663,5.663,0,0,1,.043.826Zm-1.066-4.481a3.486,3.486,0,0,1,.746.56,3.914,3.914,0,0,1,.649.841,3.735,3.735,0,0,1,.762-1.194,3.475,3.475,0,0,1,.422-.373,3.147,3.147,0,0,1-.906-.623,3.186,3.186,0,0,1-.426-.521,3.277,3.277,0,0,1-.587.8A3.375,3.375,0,0,1,76.149,113.945Z" transform="translate(-32.795 160.203)" fill="#231f20"/>
      <path id="Path_16088" data-name="Path 16088" d="M195.539,216.547a5.621,5.621,0,0,0-.684-2.651,4.174,4.174,0,0,0,3.91-.266l2.062,4.735A12.069,12.069,0,0,1,195.539,216.547Z" transform="translate(-945.098 36.077)"/>
      <path id="Path_16089" data-name="Path 16089" d="M87.594,344.2a5.614,5.614,0,0,0-2.57.943,4.174,4.174,0,0,0-.652-3.864l4.507-2.521A12.077,12.077,0,0,1,87.594,344.2Z" transform="translate(-275.501 -90.635)"/>
      <path id="Path_16090" data-name="Path 16090" d="M444.094,530.2a5.613,5.613,0,0,0-2.57.943,4.174,4.174,0,0,0-.652-3.864l4.507-2.521A12.077,12.077,0,0,1,444.094,530.2Z" transform="translate(-425.043 -214.613)"/>
      <path id="Path_16091" data-name="Path 16091" d="M544.623,68.463a5.619,5.619,0,0,0-.684-2.651,4.174,4.174,0,0,0,3.91-.266l2.061,4.735A12.066,12.066,0,0,1,544.623,68.463Z" transform="translate(-139.048 195.809)"/>
      <path id="Path_16092" data-name="Path 16092" d="M334.338,382.2q-.039-.4-.046-.774a4.072,4.072,0,0,0-1.027-2.387,2.775,2.775,0,0,0-1.949-.74,3.239,3.239,0,0,1-.429.007v-1.068c.134-.007.268-.011.395-.01a3.051,3.051,0,0,0,1.9-.783,2.763,2.763,0,0,0,.716-1.968,3.56,3.56,0,0,1-.008-.485l1.068.007q.013.225.011.441a2.784,2.784,0,0,0,.733,1.735,2.718,2.718,0,0,0,2.011.662,3.083,3.083,0,0,1,.474-.02l.016,1.067c-.141.012-.279.02-.414.023a2.67,2.67,0,0,0-1.595.772,3.71,3.71,0,0,0-.83,2.664,5.841,5.841,0,0,1,.044.827Zm-1.066-4.482a3.509,3.509,0,0,1,.746.56,3.9,3.9,0,0,1,.649.842,3.71,3.71,0,0,1,.763-1.194,3.416,3.416,0,0,1,.422-.373,3.161,3.161,0,0,1-.906-.623,3.2,3.2,0,0,1-.426-.521,3.3,3.3,0,0,1-.588.8A3.372,3.372,0,0,1,333.272,377.717Z" transform="translate(-100.62 -107.944)" fill="#231f20"/>
      <circle id="Ellipse_216" data-name="Ellipse 216" cx="1.301" cy="1.301" r="1.301" transform="translate(273.435 295)" fill="#231f20"/>
      <circle id="Ellipse_217" data-name="Ellipse 217" cx="1.301" cy="1.301" r="1.301" transform="translate(-597.084 294.825)" fill="#231f20"/>
      <circle id="Ellipse_218" data-name="Ellipse 218" cx="1.301" cy="1.301" r="1.301" transform="translate(323.168 244.703)" fill="#231f20"/>
      <circle id="Ellipse_219" data-name="Ellipse 219" cx="1.301" cy="1.301" r="1.301" transform="translate(126.794 316.915)" fill="#231f20"/>
      <circle id="Ellipse_220" data-name="Ellipse 220" cx="1.301" cy="1.301" r="1.301" transform="translate(-361.138 297.123)" fill="#231f20"/>
      <circle id="Ellipse_221" data-name="Ellipse 221" cx="1.301" cy="1.301" r="1.301" transform="translate(342.941 292.079)" fill="#231f20"/>
    </g>
  </g>
</svg>
